<?xml version="1.0" standalone="no"?>
<!DOCTYPE svg PUBLIC "-//W3C//DTD SVG 20010904//EN"
 "http://www.w3.org/TR/2001/REC-SVG-20010904/DTD/svg10.dtd">
<svg version="1.0" xmlns="http://www.w3.org/2000/svg"
 width="200.000000pt" height="200.000000pt" viewBox="0 0 200.000000 200.000000"
 preserveAspectRatio="xMidYMid meet">
<metadata>
Created by potrace 1.11, written by Peter Selinger 2001-2013
</metadata>
<g transform="translate(0.000000,200.000000) scale(0.100000,-0.100000)"
fill="#000000" stroke="none">
<path d="M662 1402 c-49 -7 -53 -31 -50 -282 3 -216 4 -233 22 -246 14 -10 50
-14 128 -14 101 0 108 -1 108 -20 0 -18 -7 -20 -64 -20 -55 0 -64 -3 -69 -19
-3 -11 -2 -22 1 -25 7 -8 407 -8 414 0 3 3 4 14 1 25 -5 16 -14 19 -69 19 -57
0 -64 2 -64 20 0 19 7 20 110 20 134 0 150 10 150 91 0 45 -2 50 -17 44 -10
-4 -26 -10 -35 -12 -10 -3 -18 -11 -18 -18 0 -9 -63 -12 -265 -12 l-265 0 0
191 0 191 88 0 c48 -1 93 1 100 3 10 4 42 52 42 64 0 4 -219 4 -248 0z"/>
<path d="M1063 1394 c-59 -15 -112 -41 -160 -76 l-32 -24 23 -27 c13 -15 26
-27 29 -27 3 0 26 14 50 30 25 17 50 30 56 30 6 0 22 18 35 39 26 41 51 54
100 53 29 -1 86 -45 86 -67 0 -7 17 -20 39 -29 21 -10 49 -28 63 -41 l26 -24
26 28 c14 15 26 30 26 34 0 12 -88 66 -140 87 -66 26 -159 32 -227 14z"/>
<path d="M1109 1357 c-24 -18 -36 -49 -34 -84 1 -22 -3 -33 -12 -33 -11 0 -13
-16 -11 -67 l3 -68 80 -2 c123 -4 122 -4 120 69 0 38 -5 63 -13 66 -7 2 -12
21 -12 43 0 69 -72 114 -121 76z m74 -41 c12 -12 13 -24 8 -68 -1 -3 -18 -5
-38 -4 -30 1 -39 6 -41 23 -7 50 38 81 71 49z"/>
<path d="M993 1211 l-22 -18 29 -28 28 -27 0 46 c0 51 -3 54 -35 27z"/>
<path d="M1280 1183 l0 -48 26 27 c28 27 26 41 -7 58 -18 10 -19 7 -19 -37z"/>
<path d="M1096 1068 c3 -7 18 -23 33 -35 l28 -22 33 34 34 35 -67 0 c-49 0
-65 -3 -61 -12z"/>
<path d="M488 665 c3 -38 1 -55 -7 -55 -7 0 -9 -4 -6 -10 3 -5 17 -10 31 -10
13 0 24 5 24 10 0 6 -4 10 -10 10 -5 0 -10 25 -10 55 0 39 -4 55 -13 55 -10 0
-13 -14 -9 -55z"/>
<path d="M585 710 c-3 -5 -1 -10 4 -10 6 0 11 5 11 10 0 6 -2 10 -4 10 -3 0
-8 -4 -11 -10z"/>
<path d="M739 693 c0 -16 -1 -45 -2 -66 -2 -41 9 -49 22 -15 l8 23 7 -23 c7
-22 36 -32 36 -12 0 6 -4 10 -9 10 -17 0 -21 33 -6 50 14 15 14 18 1 23 -9 4
-17 -3 -22 -16 -6 -19 -8 -16 -11 16 -5 43 -23 50 -24 10z"/>
<path d="M1396 698 c10 -30 6 -82 -6 -86 -6 -2 -8 -8 -4 -13 7 -12 54 -12 54
1 0 6 -4 10 -10 10 -5 0 -9 17 -8 38 1 63 -1 72 -18 72 -11 0 -14 -6 -8 -22z"/>
<path d="M1483 708 c3 -9 0 -21 -6 -27 -8 -8 -8 -14 -2 -19 6 -4 10 -16 9 -27
0 -11 4 -26 9 -32 11 -15 37 -17 37 -3 0 6 -7 10 -15 10 -10 0 -14 7 -11 23 3
12 5 26 5 30 1 5 6 5 11 2 6 -3 10 -2 10 3 0 6 -7 12 -15 16 -8 3 -14 11 -13
17 2 6 -3 14 -11 17 -10 3 -12 0 -8 -10z"/>
<path d="M1755 698 c-20 -45 27 -136 50 -98 3 6 -1 10 -9 10 -22 0 -21 46 1
58 14 9 14 10 -5 16 -13 4 -19 13 -15 22 9 23 -11 16 -22 -8z"/>
<path d="M115 666 c-13 -19 -14 -28 -4 -50 21 -46 68 -15 56 36 -9 36 -34 42
-52 14z m38 -43 c-7 -18 -20 -16 -27 3 -4 9 -1 23 6 31 10 13 13 12 19 -4 3
-10 4 -24 2 -30z"/>
<path d="M220 680 c0 -6 7 -13 15 -16 11 -4 14 -17 11 -41 -2 -20 1 -32 7 -30
14 4 16 61 3 78 -14 17 -36 23 -36 9z"/>
<path d="M409 683 c-43 -10 -36 -93 7 -93 22 0 41 27 28 39 -4 3 -9 0 -11 -6
-3 -7 -11 -13 -18 -13 -21 0 -26 28 -8 46 16 15 17 15 23 -2 4 -10 9 -13 13
-7 9 15 -15 40 -34 36z"/>
<path d="M579 682 c-1 -4 0 -22 1 -39 1 -19 -3 -33 -10 -33 -6 0 -8 -4 -5 -10
3 -5 17 -10 31 -10 13 0 24 5 24 10 0 6 -5 10 -11 10 -7 0 -10 14 -7 35 2 22
-1 36 -9 39 -7 3 -13 2 -14 -2z"/>
<path d="M678 683 c-22 -5 -31 -48 -16 -73 15 -24 43 -26 52 -4 8 22 -3 32
-14 14 -13 -22 -34 2 -25 30 5 17 9 19 21 9 8 -6 17 -9 21 -5 11 10 -20 33
-39 29z"/>
<path d="M936 665 c-13 -20 -14 -29 -4 -50 12 -28 45 -34 55 -10 8 22 -6 33
-18 15 -8 -13 -10 -13 -19 0 -13 20 -13 25 5 40 10 9 15 9 15 1 0 -6 7 -11 17
-11 14 0 14 2 -2 20 -23 26 -29 25 -49 -5z"/>
<path d="M1042 683 c-23 -9 -33 -40 -20 -67 14 -32 41 -33 55 -3 8 17 7 30 -3
50 -8 15 -16 27 -17 26 -1 0 -8 -3 -15 -6z m21 -60 c-7 -18 -20 -16 -27 3 -4
9 -1 23 6 31 10 13 13 12 19 -4 3 -10 4 -24 2 -30z"/>
<path d="M1206 674 c-8 -21 3 -41 27 -49 21 -7 20 -8 -5 -12 -34 -5 -37 -23
-4 -23 16 0 27 7 31 20 8 24 -1 40 -21 40 -8 0 -12 5 -9 10 4 6 10 8 15 5 5
-3 11 -1 15 5 3 5 3 10 -2 11 -4 0 -16 2 -25 4 -9 2 -19 -3 -22 -11z"/>
<path d="M1289 689 c-1 -2 -3 -20 -4 -39 -1 -34 13 -60 34 -60 14 0 14 17 1
22 -6 2 -12 18 -15 37 -3 29 -13 52 -16 40z"/>
<path d="M1575 681 c-6 -10 1 -15 18 -12 4 0 7 -3 7 -9 0 -5 -5 -10 -11 -10
-6 0 -16 -6 -23 -13 -11 -11 -11 -17 -1 -30 13 -19 35 -23 35 -7 0 6 -4 10
-10 10 -5 0 -10 5 -10 10 0 18 18 11 25 -10 10 -33 22 -23 20 17 -3 39 -36 75
-50 54z"/>
<path d="M1650 638 c0 -26 5 -48 10 -48 6 0 10 17 10 38 0 28 4 39 15 39 14 0
20 -28 16 -64 -1 -7 3 -13 9 -13 5 0 10 6 11 13 0 6 2 20 4 29 5 25 -19 51
-49 53 -25 1 -26 -2 -26 -47z"/>
<path d="M1845 673 c-12 -12 -13 -18 -4 -29 6 -8 18 -14 25 -14 8 0 14 -4 14
-10 0 -5 -9 -10 -20 -10 -11 0 -20 -4 -20 -10 0 -16 47 -12 54 5 7 20 -3 46
-18 43 -6 -2 -12 2 -13 7 -2 6 2 11 7 11 6 1 15 2 22 3 6 0 8 4 4 8 -13 13
-36 11 -51 -4z"/>
<path d="M190 636 c0 -50 19 -64 22 -16 0 17 1 35 2 42 1 6 -5 13 -11 16 -9 2
-13 -10 -13 -42z"/>
<path d="M1100 635 c0 -53 16 -61 22 -11 4 39 0 56 -13 56 -5 0 -9 -20 -9 -45z"/>
<path d="M1130 671 c0 -5 7 -11 15 -15 10 -4 14 -14 11 -31 -3 -13 -1 -27 4
-30 11 -7 21 24 15 50 -2 11 -4 23 -4 28 -1 10 -41 9 -41 -2z"/>
<path d="M1338 646 c-4 -39 0 -56 13 -56 5 0 9 20 9 45 0 53 -16 61 -22 11z"/>
</g>
</svg>
